<svg xmlns="http://www.w3.org/2000/svg" width="48" height="48" viewBox="0 0 48 48" fill="none" stroke-linecap="round" stroke-linejoin="round" role="img" aria-label="Colon"><title>Colon</title><defs><mask id="hmi-colon-solid" maskUnits="userSpaceOnUse" x="0" y="0" width="48" height="48" style="mask-type:luminance"><rect width="48" height="48" fill="white"/><path d="M13 17 L17 18 M20 10 L20 16 M28 10 L28 16 M33 22 L37 22 M31 31 L34 34" fill="none" stroke="black" stroke-width="1.75"/></mask></defs><g mask="url(#hmi-colon-solid)"><path d="M12 39 L12 17 C8 14 11 8 16 10 C20 7 23 8 25 10 C29 7 32 8 34 11 C39 10 41 14 38 18 L38 29 C38 34 31 35 30 37 L30 43 L24 43 L24 36 C24 29 31 30 32 27 L32 18 L18 18 L18 39 Z" fill="currentColor" stroke="currentColor" stroke-width="1.6"/></g></svg>
