<svg xmlns="http://www.w3.org/2000/svg" width="48" height="48" viewBox="0 0 48 48" fill="none" stroke-linecap="round" stroke-linejoin="round" role="img" aria-label="Colonoscopy"><title>Colonoscopy</title><style>@keyframes hmi-flow{to{stroke-dashoffset:-100}}.hmi-beam-tail,.hmi-beam-head{animation:hmi-flow var(--hmi-duration,2.6s) linear infinite;animation-play-state:var(--hmi-play-state,running)}.hmi-beam-tail{stroke-dasharray:20 80;opacity:.22}.hmi-beam-head{stroke-dasharray:7 93}@media(prefers-reduced-motion:reduce){.hmi-beam-tail,.hmi-beam-head{animation:none;display:none}.hmi-beam-base{opacity:1}}</style><g class="hmi-beam-base" opacity="0.48"><path d="M12 39 L12 17 C8 14 11 8 16 10 C20 7 23 8 25 10 C29 7 32 8 34 11 C39 10 41 14 38 18 L38 29 C38 34 31 35 30 37 L30 43 L24 43 L24 36 C24 29 31 30 32 27 L32 18 L18 18 L18 39 Z" fill="none" stroke="currentColor" stroke-width="2.1"/><path d="M13 17 L17 18 M20 10 L20 16 M28 10 L28 16 M33 22 L37 22 M31 31 L34 34" fill="none" stroke="currentColor" stroke-width="2.1"/><path d="M27 42 V36 C28 31 34 31 35 27 V17 Q35 12 30 14 H20" fill="none" stroke="currentColor" stroke-width="2.1"/><path d="M27 43 H38" fill="none" stroke="currentColor" stroke-width="2.1"/></g><g fill="none" stroke="var(--hmi-beam-color, currentColor)"><path class="hmi-beam-tail" d="M27 43 V36 C28 31 34 31 35 27 V17 Q35 12 30 14 H20" pathLength="100" stroke-width="3.8"/><path class="hmi-beam-head" d="M27 43 V36 C28 31 34 31 35 27 V17 Q35 12 30 14 H20" pathLength="100" stroke-width="2.3"/></g></svg>
