<svg xmlns="http://www.w3.org/2000/svg" width="48" height="48" viewBox="0 0 48 48" fill="none" stroke-linecap="round" stroke-linejoin="round" role="img" aria-label="Bed with Oxygen"><title>Bed with Oxygen</title><g transform="translate(-1 8) scale(0.85)"><rect x="5" y="26" width="38" height="7" rx="2" fill="currentColor" stroke="currentColor" stroke-width="2.1" fill-opacity="0.14"/><path d="M6 20 L6 39 M42 27 L42 39 M6 36 H42" fill="none" stroke="currentColor" stroke-width="2.1"/><circle cx="10" cy="41" r="2" fill="currentColor" stroke="currentColor" stroke-width="2.1" fill-opacity="0.14"/><circle cx="38" cy="41" r="2" fill="currentColor" stroke="currentColor" stroke-width="2.1" fill-opacity="0.14"/><circle cx="13" cy="21" r="4" fill="currentColor" stroke="currentColor" stroke-width="2.1" fill-opacity="0.3"/><path d="M18 25 L18 19 L29 19 C34 19 37 22 38 26 Z" fill="currentColor" stroke="currentColor" stroke-width="2.1" fill-opacity="0.14"/></g><g transform="translate(29 2) scale(0.45)"><rect x="15" y="12" width="18" height="31" rx="5" fill="currentColor" stroke="currentColor" stroke-width="2.1" fill-opacity="0.14"/><rect x="19" y="6" width="10" height="6" rx="1" fill="currentColor" stroke="currentColor" stroke-width="2.1" fill-opacity="0.14"/><path d="M24 6 V3 M19 3 H29" fill="none" stroke="currentColor" stroke-width="2.1"/><path d="M20 19 L28 19 M20 36 H28" fill="none" stroke="currentColor" stroke-width="2.1"/></g><path d="M41 7 C32 5 30 18 27 21 L13 27" fill="none" stroke="currentColor" stroke-width="2.1"/></svg>
