<svg xmlns="http://www.w3.org/2000/svg" width="48" height="48" viewBox="0 0 48 48" fill="none" stroke-linecap="round" stroke-linejoin="round" role="img" aria-label="ICU"><title>ICU</title><defs><mask id="hmi-icu-solid" maskUnits="userSpaceOnUse" x="0" y="0" width="48" height="48" style="mask-type:luminance"><rect width="48" height="48" fill="white"/><g transform="translate(1 20) scale(0.48)"><circle cx="13" cy="21" r="4" fill="none" stroke="black" stroke-width="1.75"/></g><g transform="translate(24 20) scale(0.48)"><circle cx="13" cy="21" r="4" fill="none" stroke="black" stroke-width="1.75"/></g><g transform="translate(15 8) scale(0.38)"><path d="M10 22 H17 L20 15 L25 27 L29 19 H38" fill="none" stroke="black" stroke-width="1.75"/></g></mask></defs><g mask="url(#hmi-icu-solid)"><path d="M5 40 V10 Q5 6 9 6 H39 Q43 6 43 10 V40" fill="none" stroke="currentColor" stroke-width="2.1"/><g transform="translate(1 20) scale(0.48)"><rect x="5" y="26" width="38" height="7" rx="2" fill="currentColor" stroke="currentColor" stroke-width="1.6"/><path d="M6 20 L6 39 M42 27 L42 39 M6 36 H42" fill="none" stroke="currentColor" stroke-width="2.1"/><circle cx="10" cy="41" r="2" fill="currentColor" stroke="currentColor" stroke-width="1.6"/><circle cx="38" cy="41" r="2" fill="currentColor" stroke="currentColor" stroke-width="1.6"/><circle cx="13" cy="21" r="4" fill="currentColor" stroke="currentColor" stroke-width="1.6"/><path d="M18 25 L18 19 L29 19 C34 19 37 22 38 26 Z" fill="currentColor" stroke="currentColor" stroke-width="1.6"/></g><g transform="translate(24 20) scale(0.48)"><rect x="5" y="26" width="38" height="7" rx="2" fill="currentColor" stroke="currentColor" stroke-width="1.6"/><path d="M6 20 L6 39 M42 27 L42 39 M6 36 H42" fill="none" stroke="currentColor" stroke-width="2.1"/><circle cx="10" cy="41" r="2" fill="currentColor" stroke="currentColor" stroke-width="1.6"/><circle cx="38" cy="41" r="2" fill="currentColor" stroke="currentColor" stroke-width="1.6"/><circle cx="13" cy="21" r="4" fill="currentColor" stroke="currentColor" stroke-width="1.6"/><path d="M18 25 L18 19 L29 19 C34 19 37 22 38 26 Z" fill="currentColor" stroke="currentColor" stroke-width="1.6"/></g><g transform="translate(15 8) scale(0.38)"><rect x="6" y="6" width="36" height="27" rx="3" fill="currentColor" stroke="currentColor" stroke-width="1.6"/><path d="M24 34 L24 40 M15 41 L33 41" fill="none" stroke="currentColor" stroke-width="2.1"/></g></g></svg>
