<svg xmlns="http://www.w3.org/2000/svg" width="48" height="48" viewBox="0 0 48 48" fill="none" stroke-linecap="round" stroke-linejoin="round" role="img" aria-label="Rheumatology"><title>Rheumatology</title><defs><mask id="hmi-rheumatology-solid" maskUnits="userSpaceOnUse" x="0" y="0" width="48" height="48" style="mask-type:luminance"><rect width="48" height="48" fill="white"/><g transform="translate(-3 0) scale(0.85)"><ellipse cx="35" cy="23" rx="3" ry="5" fill="none" stroke="black" stroke-width="1.75"/><path d="M20 9 L20 18 M22 34 L23 40 M32 32 L36 42" fill="none" stroke="black" stroke-width="1.75"/></g></mask></defs><g mask="url(#hmi-rheumatology-solid)"><g transform="translate(-3 0) scale(0.85)"><path d="M16 5 L29 5 L29 17 C35 23 31 28 26 25 C23 29 15 25 17 20 Z" fill="currentColor" stroke="currentColor" stroke-width="1.6"/><path d="M16 31 C19 27 24 28 26 30 C29 27 33 29 32 33 L29 43 L19 43 Z" fill="currentColor" stroke="currentColor" stroke-width="1.6"/><ellipse cx="35" cy="23" rx="3" ry="5" fill="currentColor" stroke="currentColor" stroke-width="1.6"/></g><path d="M34 16 L40 13 M35 22 H43 M34 28 L40 32" fill="none" stroke="currentColor" stroke-width="2.1"/></g></svg>
